<svg id="bag" width="24" height="24" viewBox="0 0 24 24" fill="none" xmlns="http://www.w3.org/2000/svg">
<path fill-rule="evenodd" clip-rule="evenodd" d="M19.1212 6H17.0001C17.0001 3.23858 14.7615 1 12.0001 1C9.23865 1 7.00008 3.23858 7.00008 6H4.87898C3.82286 6 2.94876 6.82118 2.88288 7.87525L2.13288 19.8752C2.06092 21.0266 2.97534 22 4.12898 22H19.8712C21.0248 22 21.9392 21.0266 21.8673 19.8752L21.1173 7.87524C21.0514 6.82117 20.1773 6 19.1212 6ZM7.00008 8H4.87898L4.12898 20H19.8712L19.1212 8H17.0001V11C17.0001 11.5523 16.5524 12 16.0001 12C15.4478 12 15.0001 11.5523 15.0001 11V8H9.00008V11C9.00008 11.5523 8.55236 12 8.00008 12C7.44779 12 7.00008 11.5523 7.00008 11V8ZM12.0001 3C13.6569 3 15.0001 4.34315 15.0001 6H9.00008C9.00008 4.34315 10.3432 3 12.0001 3Z" fill="#009EF7"/>
</svg>
