<svg id="basket" width="24" height="24" viewBox="0 0 24 24" fill="none" xmlns="http://www.w3.org/2000/svg">
<path d="M12.0004 17.9999C11.5862 17.9999 11.2504 17.6642 11.2504 17.2499V12.7499C11.2504 12.3357 11.5862 11.9999 12.0004 11.9999C12.4146 11.9999 12.7504 12.3357 12.7504 12.7499V17.2499C12.7504 17.6642 12.4146 17.9999 12.0004 17.9999Z" fill="black"/>
<path d="M8.00043 17.9999C7.58621 17.9999 7.25043 17.6642 7.25043 17.2499V12.7499C7.25043 12.3357 7.58621 11.9999 8.00043 11.9999C8.41464 11.9999 8.75043 12.3357 8.75043 12.7499V17.2499C8.75043 17.6642 8.41464 17.9999 8.00043 17.9999Z" fill="black"/>
<path d="M16.0004 17.9999C15.5862 17.9999 15.2504 17.6642 15.2504 17.2499V12.7499C15.2504 12.3357 15.5862 11.9999 16.0004 11.9999C16.4146 11.9999 16.7504 12.3357 16.7504 12.7499V17.2499C16.7504 17.6642 16.4146 17.9999 16.0004 17.9999Z" fill="black"/>
<path fill-rule="evenodd" clip-rule="evenodd" d="M10.3616 0.938185C10.0302 0.829343 9.65694 0.964342 9.47713 1.27903L5.6366 7.99995H3.4744C2.20111 7.99995 1.252 9.17398 1.51879 10.419L3.66165 20.419C3.85925 21.3412 4.67418 22 5.61725 22H18.3836C19.3267 22 20.1416 21.3412 20.3392 20.419L22.482 10.419C22.7488 9.17398 21.7997 7.99995 20.5264 7.99995H18.3642L14.5237 1.27903C14.3182 0.919387 13.8601 0.794439 13.5004 0.999947C13.1408 1.20545 13.0158 1.6636 13.2213 2.02323L16.6366 7.99995H7.36184C7.3749 7.97985 7.38762 7.959 7.39966 7.93793L10.7795 2.02323C10.8052 1.97828 10.8257 1.93179 10.8413 1.88444C10.9501 1.55301 10.8151 1.17977 10.5004 0.999947C10.4555 0.974259 10.409 0.953733 10.3616 0.938185ZM2.98549 10.1047C2.9188 9.79346 3.15607 9.49995 3.4744 9.49995H20.5264C20.8448 9.49995 21.082 9.79346 21.0153 10.1047L18.8725 20.1047C18.8231 20.3353 18.6193 20.5 18.3836 20.5H5.61725C5.38148 20.5 5.17775 20.3353 5.12835 20.1047L2.98549 10.1047Z" fill="black"/>
</svg>
