<svg id="clock" width="24" height="24" viewBox="0 0 24 24" fill="none" xmlns="http://www.w3.org/2000/svg">
<path d="M12 7.5C11.4477 7.5 11 7.94772 11 8.5V12C11 12.3573 11.1906 12.6874 11.5 12.866L14.9641 14.866C15.0239 14.9005 15.0858 14.9282 15.1488 14.9492C15.5901 15.0963 16.0885 14.9185 16.3301 14.5C16.6063 14.0217 16.4424 13.4101 15.9641 13.134L13 11.4227V8.5C13 7.94772 12.5523 7.5 12 7.5Z" fill="#009EF7"/>
<path fill-rule="evenodd" clip-rule="evenodd" d="M12 22C17.5228 22 22 17.5228 22 12C22 6.47715 17.5228 2 12 2C6.47715 2 2 6.47715 2 12C2 17.5228 6.47715 22 12 22ZM12 20C16.4183 20 20 16.4183 20 12C20 7.58172 16.4183 4 12 4C7.58172 4 4 7.58172 4 12C4 16.4183 7.58172 20 12 20Z" fill="#009EF7"/>
</svg>
