<svg id="list" width="24" height="24" viewBox="0 0 24 24" fill="none" xmlns="http://www.w3.org/2000/svg">
<path d="M3 6.99998C3 6.36485 3.51487 5.84998 4.15 5.84998C4.78513 5.84998 5.3 6.36485 5.3 6.99998C5.3 7.6351 4.78513 8.14998 4.15 8.14998C3.51487 8.14998 3 7.6351 3 6.99998Z" fill="black"/>
<path d="M7.00006 6.99998C7.00006 6.44769 7.44778 5.99998 8.00006 5.99998H20.0001C20.5524 5.99998 21.0001 6.44769 21.0001 6.99998C21.0001 7.55226 20.5524 7.99998 20.0001 7.99998H8.00006C7.44778 7.99998 7.00006 7.55226 7.00006 6.99998Z" fill="black"/>
<path d="M3 11.9999C3 11.3648 3.51487 10.8499 4.15 10.8499C4.78513 10.8499 5.3 11.3648 5.3 11.9999C5.3 12.6351 4.78513 13.1499 4.15 13.1499C3.51487 13.1499 3 12.6351 3 11.9999Z" fill="black"/>
<path d="M8.00006 10.9999C7.44778 10.9999 7.00006 11.4477 7.00006 11.9999C7.00006 12.5522 7.44778 12.9999 8.00006 12.9999H20.0001C20.5524 12.9999 21.0001 12.5522 21.0001 11.9999C21.0001 11.4477 20.5524 10.9999 20.0001 10.9999H8.00006Z" fill="black"/>
<path d="M7.00006 17C7.00006 16.4477 7.44778 16 8.00006 16H20.0001C20.5524 16 21.0001 16.4477 21.0001 17C21.0001 17.5523 20.5524 18 20.0001 18H8.00006C7.44778 18 7.00006 17.5523 7.00006 17Z" fill="black"/>
<path d="M3.00006 17C3.00006 16.3648 3.51494 15.85 4.15006 15.85C4.78519 15.85 5.30006 16.3648 5.30006 17C5.30006 17.6351 4.78519 18.15 4.15006 18.15C3.51494 18.15 3.00006 17.6351 3.00006 17Z" fill="black"/>
</svg>
