<svg id="map" width="24" height="24" viewBox="0 0 24 24" fill="none" xmlns="http://www.w3.org/2000/svg">
<path fill-rule="evenodd" clip-rule="evenodd" d="M12 14C14.2091 14 16 12.2091 16 10C16 7.79086 14.2091 6 12 6C9.79086 6 8 7.79086 8 10C8 12.2091 9.79086 14 12 14ZM12 12C13.1046 12 14 11.1046 14 10C14 8.89543 13.1046 8 12 8C10.8954 8 10 8.89543 10 10C10 11.1046 10.8954 12 12 12Z" fill="#009EF7"/>
<path fill-rule="evenodd" clip-rule="evenodd" d="M21 10C21 14.963 15.7052 20.549 13.238 22.8825C12.5344 23.5479 11.4656 23.5479 10.762 22.8825C8.29483 20.549 3 14.963 3 10C3 5.02944 7.02944 1 12 1C16.9706 1 21 5.02944 21 10ZM19 10C19 11.8435 17.9793 14.0547 16.4111 16.2728C14.9434 18.3488 13.1877 20.1658 12 21.2999C10.8123 20.1658 9.05661 18.3488 7.58891 16.2728C6.02075 14.0547 5 11.8435 5 10C5 6.13401 8.13401 3 12 3C15.866 3 19 6.13401 19 10Z" fill="#009EF7"/>
</svg>
