<svg id="mess" width="24" height="24" viewBox="0 0 24 24" fill="none" xmlns="http://www.w3.org/2000/svg">
<path d="M6.5 8.5C6.5 7.94772 6.94772 7.5 7.5 7.5H16.5C17.0523 7.5 17.5 7.94772 17.5 8.5C17.5 9.05229 17.0523 9.5 16.5 9.5H7.5C6.94772 9.5 6.5 9.05229 6.5 8.5Z" fill="black"/>
<path d="M7.5 11.5C6.94772 11.5 6.5 11.9477 6.5 12.5C6.5 13.0523 6.94772 13.5 7.5 13.5H16.5C17.0523 13.5 17.5 13.0523 17.5 12.5C17.5 11.9477 17.0523 11.5 16.5 11.5H7.5Z" fill="black"/>
<path fill-rule="evenodd" clip-rule="evenodd" d="M2 5C2 3.89543 2.89543 3 4 3H20C21.1046 3 22 3.89543 22 5V16C22 17.1046 21.1046 18 20 18H15.375L12.8716 22.4505C12.4893 23.1302 11.5107 23.1302 11.1284 22.4505L8.625 18H4C2.89543 18 2 17.1046 2 16V5ZM8.625 16C9.34755 16 10.0139 16.3897 10.3682 17.0195L12 19.9205L13.6319 17.0195C13.9861 16.3897 14.6525 16 15.375 16H20V5H4V16H8.625Z" fill="black"/>
</svg>
