<svg id="phone" width="24" height="24" viewBox="0 0 24 24" fill="none" xmlns="http://www.w3.org/2000/svg">
<path fill-rule="evenodd" clip-rule="evenodd" d="M21.0047 21.342C21.6329 20.8043 21.9962 20.02 22 19.1931V16.1795C22 15.3021 21.4281 14.5272 20.5898 14.2685L17.1131 13.1956C16.4856 13.002 15.8031 13.1287 15.2869 13.5346L13.8995 14.6258C13.0354 14.0205 12.2118 13.3319 11.4399 12.5601C10.6681 11.7882 9.97951 10.9646 9.37419 10.1005L10.4654 8.71309C10.8713 8.19694 10.998 7.5144 10.8044 6.88693L9.73153 3.41025C9.47281 2.57186 8.69786 2 7.82046 2H4.8069C3.98001 2.00381 3.19565 2.3671 2.65797 2.99532C2.21357 3.51456 1.96206 4.17697 2.00467 4.85909C2.27326 9.15824 4.04992 13.3803 7.33479 16.6652C10.6197 19.9501 14.8418 21.7267 19.1409 21.9953C19.823 22.0379 20.4854 21.7864 21.0047 21.342ZM8.19517 9.17315C7.7863 9.693 7.76616 10.4193 8.1456 10.961C8.80075 11.8963 9.54546 12.7869 10.3793 13.6207C11.2131 14.4545 12.1037 15.1993 13.039 15.8544C13.5807 16.2338 14.307 16.2137 14.8269 15.8048L16.2142 14.7137C16.3433 14.6122 16.5139 14.5805 16.6708 14.6289L20.1474 15.7018C20.357 15.7665 20.5 15.9602 20.5 16.1795V19.1889C20.4974 19.579 20.3257 19.9487 20.0293 20.2024C19.7707 20.4238 19.4829 20.5138 19.2344 20.4983C15.286 20.2516 11.4121 18.6212 8.39545 15.6046C5.37884 12.5879 3.74843 8.71403 3.50175 4.76556C3.48623 4.5171 3.57624 4.22928 3.79756 3.97068C4.05123 3.6743 4.42099 3.50261 4.811 3.5H7.82046C8.03981 3.5 8.23355 3.64297 8.29823 3.85256L9.37111 7.32924C9.41952 7.4861 9.38784 7.65674 9.28635 7.78578L8.19517 9.17315Z" fill="black"/>
</svg>
