<svg width="50" height="15" viewBox="0 0 50 15" fill="none" xmlns="http://www.w3.org/2000/svg">
<path d="M0.447443 14V12.2869L0.830966 12.2741C1.35085 12.2614 1.75994 12.0845 2.05824 11.7436C2.3608 11.4027 2.58026 10.853 2.71662 10.0945C2.85724 9.33594 2.95099 8.32386 2.99787 7.05824L3.22159 0.909091H11.4993V14H9.54972V2.58381H5.08168L4.87713 7.58239C4.82173 8.98437 4.68111 10.1626 4.45526 11.1172C4.2294 12.0675 3.84588 12.7855 3.30469 13.2713C2.76776 13.7571 2.00284 14 1.00994 14H0.447443ZM25.7472 7.45455C25.7472 8.85227 25.4915 10.054 24.9801 11.0597C24.4688 12.0611 23.7678 12.8324 22.8771 13.3736C21.9908 13.9105 20.983 14.179 19.8537 14.179C18.7202 14.179 17.7081 13.9105 16.8175 13.3736C15.9311 12.8324 15.2322 12.0589 14.7209 11.0533C14.2095 10.0476 13.9538 8.84801 13.9538 7.45455C13.9538 6.05682 14.2095 4.85724 14.7209 3.85582C15.2322 2.85014 15.9311 2.07883 16.8175 1.5419C17.7081 1.00071 18.7202 0.730113 19.8537 0.730113C20.983 0.730113 21.9908 1.00071 22.8771 1.5419C23.7678 2.07883 24.4688 2.85014 24.9801 3.85582C25.4915 4.85724 25.7472 6.05682 25.7472 7.45455ZM23.7912 7.45455C23.7912 6.3892 23.6186 5.49219 23.2734 4.76349C22.9325 4.03054 22.4638 3.47656 21.8672 3.10156C21.2749 2.7223 20.6037 2.53267 19.8537 2.53267C19.0994 2.53267 18.4261 2.7223 17.8338 3.10156C17.2415 3.47656 16.7727 4.03054 16.4276 4.76349C16.0866 5.49219 15.9162 6.3892 15.9162 7.45455C15.9162 8.51989 16.0866 9.41903 16.4276 10.152C16.7727 10.8807 17.2415 11.4347 17.8338 11.8139C18.4261 12.1889 19.0994 12.3764 19.8537 12.3764C20.6037 12.3764 21.2749 12.1889 21.8672 11.8139C22.4638 11.4347 22.9325 10.8807 23.2734 10.152C23.6186 9.41903 23.7912 8.51989 23.7912 7.45455ZM36.3723 0.909091V2.60938H30.1848V14H28.2097V0.909091H36.3723ZM49.4073 7.45455C49.4073 8.85227 49.1516 10.054 48.6403 11.0597C48.1289 12.0611 47.4279 12.8324 46.5373 13.3736C45.6509 13.9105 44.6431 14.179 43.5138 14.179C42.3803 14.179 41.3683 13.9105 40.4776 13.3736C39.5913 12.8324 38.8924 12.0589 38.381 11.0533C37.8697 10.0476 37.614 8.84801 37.614 7.45455C37.614 6.05682 37.8697 4.85724 38.381 3.85582C38.8924 2.85014 39.5913 2.07883 40.4776 1.5419C41.3683 1.00071 42.3803 0.730113 43.5138 0.730113C44.6431 0.730113 45.6509 1.00071 46.5373 1.5419C47.4279 2.07883 48.1289 2.85014 48.6403 3.85582C49.1516 4.85724 49.4073 6.05682 49.4073 7.45455ZM47.4514 7.45455C47.4514 6.3892 47.2788 5.49219 46.9336 4.76349C46.5927 4.03054 46.1239 3.47656 45.5273 3.10156C44.935 2.7223 44.2638 2.53267 43.5138 2.53267C42.7596 2.53267 42.0863 2.7223 41.494 3.10156C40.9016 3.47656 40.4329 4.03054 40.0877 4.76349C39.7468 5.49219 39.5763 6.3892 39.5763 7.45455C39.5763 8.51989 39.7468 9.41903 40.0877 10.152C40.4329 10.8807 40.9016 11.4347 41.494 11.8139C42.0863 12.1889 42.7596 12.3764 43.5138 12.3764C44.2638 12.3764 44.935 12.1889 45.5273 11.8139C46.1239 11.4347 46.5927 10.8807 46.9336 10.152C47.2788 9.41903 47.4514 8.51989 47.4514 7.45455Z" fill="black"/>
</svg>
