<?xml version="1.0" encoding="utf-8"?><svg viewBox="0 0 48 48" xmlns="http://www.w3.org/2000/svg" xmlns:xlink="http://www.w3.org/1999/xlink"><style>:root>svg{display:none}:root>svg:target{display:block}</style><svg viewBox="0 0 24 24" id="arrow" xmlns="http://www.w3.org/2000/svg"><path d="M13.045 5.46l5.54 5.54H3a1 1 0 000 2h15.586l-5.541 5.54a1 1 0 001.414 1.415l7.248-7.248a1 1 0 000-1.414l-7.248-7.248a.997.997 0 00-1.414 0 1 1 0 000 1.414z"/></svg><svg viewBox="0 0 24 24" id="bag" xmlns="http://www.w3.org/2000/svg"><path fill-rule="evenodd" clip-rule="evenodd" d="M19.121 6h-2.12A5 5 0 007 6H4.878a2 2 0 00-1.996 1.875l-.75 12A2 2 0 004.129 22h15.742a2 2 0 001.996-2.125l-.75-12A2 2 0 0019.121 6zM7.001 8H4.878l-.75 12H19.87l-.75-12H17v3a1 1 0 11-2 0V8H9v3a1 1 0 11-2 0V8zm5-5a3 3 0 013 3H9a3 3 0 013-3z"/></svg><svg viewBox="0 0 24 24" id="basket" xmlns="http://www.w3.org/2000/svg"><path d="M12 18a.75.75 0 01-.75-.75v-4.5a.75.75 0 011.5 0v4.5A.75.75 0 0112 18zm-4 0a.75.75 0 01-.75-.75v-4.5a.75.75 0 011.5 0v4.5A.75.75 0 018 18zm8 0a.75.75 0 01-.75-.75v-4.5a.75.75 0 011.5 0v4.5A.75.75 0 0116 18z"/><path fill-rule="evenodd" clip-rule="evenodd" d="M10.362.938a.75.75 0 00-.885.341L5.637 8H3.474a2 2 0 00-1.955 2.419l2.143 10A2 2 0 005.617 22h12.767a2 2 0 001.955-1.581l2.143-10a2 2 0 00-1.956-2.42h-2.162l-3.84-6.72a.75.75 0 10-1.303.744L16.637 8H7.362l.038-.062 3.38-5.915a.75.75 0 00-.418-1.085zm-7.377 9.167a.5.5 0 01.49-.605h17.051a.5.5 0 01.49.605l-2.143 10a.5.5 0 01-.49.395H5.618a.5.5 0 01-.489-.395l-2.143-10z"/></svg><svg viewBox="0 0 24 24" id="box" xmlns="http://www.w3.org/2000/svg"><path fill-rule="evenodd" clip-rule="evenodd" d="M4 6.223a2 2 0 00-1 1.731v8.092a2 2 0 001 1.731l7 4.045a2 2 0 002 0l7-4.045a2 2 0 001-1.731V7.954a2 2 0 00-1-1.731l-7-4.045a2 2 0 00-2 0L4 6.222zm8-2.313l6.002 3.467L16 8.534 9.998 5.066 12 3.91zM8 6.22l6 3.47-2 1.155-6.002-3.468L8 6.221zM5 9.11l6 3.466v6.935l-6-3.466V9.11zm14 0v6.935l-6 3.466v-6.935l6-3.467z"/></svg><svg viewBox="0 0 24 24" id="clock" xmlns="http://www.w3.org/2000/svg"><path d="M12 7.5a1 1 0 00-1 1V12a1 1 0 00.5.866l3.464 2a1 1 0 001-1.732L13 11.423V8.5a1 1 0 00-1-1z"/><path fill-rule="evenodd" clip-rule="evenodd" d="M12 22c5.523 0 10-4.477 10-10S17.523 2 12 2 2 6.477 2 12s4.477 10 10 10zm0-2a8 8 0 100-16 8 8 0 000 16z"/></svg><svg viewBox="0 0 24 24" id="list" xmlns="http://www.w3.org/2000/svg"><path d="M3 7a1.15 1.15 0 112.3 0A1.15 1.15 0 013 7zm4 0a1 1 0 011-1h12a1 1 0 110 2H8a1 1 0 01-1-1zm-4 5a1.15 1.15 0 112.3 0A1.15 1.15 0 013 12zm5-1a1 1 0 000 2h12a1 1 0 100-2H8zm-1 6a1 1 0 011-1h12a1 1 0 110 2H8a1 1 0 01-1-1zm-4 0a1.15 1.15 0 112.3 0A1.15 1.15 0 013 17z"/></svg><svg viewBox="0 0 24 24" id="mail" xmlns="http://www.w3.org/2000/svg"><path fill-rule="evenodd" clip-rule="evenodd" d="M2 6v12a2 2 0 002 2h16a2 2 0 002-2V6a2 2 0 00-2-2H4a2 2 0 00-2 2zm2 12V9.465l7 4.042a2 2 0 002 0l7-4.042V18H4zm8-6.225l-8-4.62V6h16v1.155l-8 4.62z"/></svg><svg viewBox="0 0 24 24" id="map" xmlns="http://www.w3.org/2000/svg"><path fill-rule="evenodd" clip-rule="evenodd" d="M12 14a4 4 0 100-8 4 4 0 000 8zm0-2a2 2 0 100-4 2 2 0 000 4z"/><path fill-rule="evenodd" clip-rule="evenodd" d="M21 10c0 4.963-5.295 10.549-7.762 12.883a1.785 1.785 0 01-2.476 0C8.295 20.549 3 14.963 3 10a9 9 0 0118 0zm-2 0c0 1.844-1.02 4.055-2.589 6.273-1.468 2.076-3.223 3.893-4.411 5.027-1.188-1.134-2.943-2.951-4.411-5.027C6.02 14.055 5 11.843 5 10a7 7 0 0114 0z"/></svg><svg viewBox="0 0 24 24" id="mess" xmlns="http://www.w3.org/2000/svg"><path d="M6.5 8.5a1 1 0 011-1h9a1 1 0 110 2h-9a1 1 0 01-1-1zm1 3a1 1 0 100 2h9a1 1 0 100-2h-9z"/><path fill-rule="evenodd" clip-rule="evenodd" d="M2 5a2 2 0 012-2h16a2 2 0 012 2v11a2 2 0 01-2 2h-4.625l-2.503 4.45a1 1 0 01-1.744 0L8.625 18H4a2 2 0 01-2-2V5zm6.625 11a2 2 0 011.743 1.02L12 19.92l1.632-2.9A2 2 0 0115.375 16H20V5H4v11h4.625z"/></svg><svg viewBox="0 0 24 24" id="pay" xmlns="http://www.w3.org/2000/svg"><path d="M18 14a1.5 1.5 0 11-3 0 1.5 1.5 0 013 0z"/><path fill-rule="evenodd" clip-rule="evenodd" d="M5 3a3 3 0 00-3 3v13a2 2 0 002 2h16a2 2 0 002-2V9a2 2 0 00-2-2V5a2 2 0 00-2-2H5zM4 6a1 1 0 001 1h13V5H5a1 1 0 00-1 1zm0 2.83c.313.11.65.17 1 .17h15v10H4V8.83z"/></svg><svg viewBox="0 0 24 24" id="phone" xmlns="http://www.w3.org/2000/svg"><path fill-rule="evenodd" clip-rule="evenodd" d="M21.005 21.342A2.846 2.846 0 0022 19.193V16.18a2 2 0 00-1.41-1.91l-3.477-1.073a2 2 0 00-1.826.339l-1.388 1.09a18.444 18.444 0 01-4.525-4.524l1.091-1.388a2 2 0 00.34-1.826L9.731 3.41A2 2 0 007.82 2H4.807a2.846 2.846 0 00-2.149.995c-.444.52-.696 1.182-.653 1.864a18.252 18.252 0 005.33 11.806 18.252 18.252 0 0011.806 5.33c.682.043 1.344-.209 1.864-.653zM8.195 9.173a1.5 1.5 0 00-.05 1.788c.656.935 1.4 1.826 2.234 2.66a19.932 19.932 0 002.66 2.233 1.5 1.5 0 001.788-.05l1.387-1.09a.5.5 0 01.457-.085l3.476 1.073a.5.5 0 01.353.478v3.009c-.003.39-.174.76-.47 1.013-.26.222-.547.312-.796.296a16.752 16.752 0 01-10.839-4.893 16.752 16.752 0 01-4.893-10.84c-.016-.248.074-.536.296-.794A1.346 1.346 0 014.81 3.5h3.01a.5.5 0 01.477.353L9.37 7.329a.5.5 0 01-.085.457l-1.09 1.387z"/></svg><svg viewBox="0 0 24 24" id="plus" xmlns="http://www.w3.org/2000/svg"><path d="M11.002 20a1 1 0 002 0v-7h7a1 1 0 100-2h-7V4a1 1 0 10-2 0v7h-7a1 1 0 100 2h7v7z"/></svg><svg viewBox="0 0 24 24" id="small-arrow" xmlns="http://www.w3.org/2000/svg"><path d="M8.417 10l3.586 3.586L15.589 10a1 1 0 011.414 1.414l-4.293 4.293a1 1 0 01-1.414 0l-4.293-4.293A1 1 0 018.417 10z"/></svg><svg viewBox="0 0 24 24" id="whatsapp" xmlns="http://www.w3.org/2000/svg"><path d="M12.012 2c-5.506 0-9.989 4.478-9.99 9.984a9.964 9.964 0 001.333 4.993L2 22l5.232-1.236a9.981 9.981 0 004.774 1.215h.004c5.505 0 9.985-4.48 9.988-9.985a9.922 9.922 0 00-2.922-7.066A9.923 9.923 0 0012.012 2zm-.002 2a7.95 7.95 0 015.652 2.342 7.93 7.93 0 012.336 5.65c-.002 4.404-3.584 7.987-7.99 7.987a7.999 7.999 0 01-3.817-.971l-.673-.367-.745.175-1.968.465.48-1.785.217-.8-.414-.72a7.98 7.98 0 01-1.067-3.992C4.023 7.582 7.607 4 12.01 4zM8.477 7.375a.917.917 0 00-.666.313c-.23.248-.875.852-.875 2.08 0 1.228.894 2.415 1.02 2.582.123.166 1.726 2.765 4.263 3.765 2.108.831 2.536.667 2.994.625.458-.04 1.477-.602 1.685-1.185.208-.583.209-1.085.147-1.188-.062-.104-.229-.166-.479-.29-.249-.126-1.476-.728-1.705-.811-.229-.083-.396-.125-.562.125-.166.25-.643.81-.79.976-.145.167-.29.19-.54.065-.25-.126-1.054-.39-2.008-1.24-.742-.662-1.243-1.477-1.389-1.727-.145-.25-.013-.386.112-.51.112-.112.248-.291.373-.437.124-.146.167-.25.25-.416.083-.166.04-.313-.022-.438s-.547-1.357-.77-1.851c-.186-.415-.384-.425-.562-.432-.145-.006-.31-.006-.476-.006z"/></svg></svg>